<svg version="1.1" xmlns="http://www.w3.org/2000/svg" xmlns:xlink="http://www.w3.org/1999/xlink" x="0px" y="0px" viewBox="402.7 248.8 154 62.4" enable-background="new 402.7 248.8 154 62.4" xml:space="preserve"><g><path fill="#f3f3f3" d="M412.6,267c3.3,0,6.4,1,8.8,2.7l-0.9-2.3h9.5l3.2,11.4l0.7,2.6c0,0,0.4-1.3,0.7-2.6l3.3-11.4h9.5l-0.8,2.4  c2.4-1.8,5.5-2.7,8.8-2.7c0.5,0,0.9,0,1.4,0.1l-4.9-18.4L402.7,262l1.9,7.2C406.9,267.8,409.6,267,412.6,267z"/><path fill="#f3f3f3" d="M455.4,275.3c-2.9,0-4.7,2.2-4.7,4.9c0,2.9,1.9,4.8,4.7,4.8s4.7-2,4.7-4.8c0-0.4,0-0.8-0.1-1.1l-0.2-0.6  C459.2,276.6,457.6,275.3,455.4,275.3z"/><path fill="#f3f3f3" d="M417.2,280.1c0-2.7-1.8-4.9-4.7-4.9s-4.7,2.2-4.7,4.9c0,2.9,1.9,4.8,4.7,4.8  C415.3,285,417.2,283,417.2,280.1z"/><path fill="#f3f3f3" d="M455.4,292.9c-6.9,0-12.6-3.9-13.7-10.5l-3.9,10.1h-7.7l-3.9-10.1c-1.1,6.6-6.8,10.5-13.7,10.5  c-0.5,0-1.1,0-1.6-0.1l4.9,18.4L465,298l-1.9-7.1C461,292.2,458.3,292.9,455.4,292.9z"/></g><g><path fill="#f3f3f3" d="M472.8,281.5c0,2.8,1.8,5,4.9,5c3.6,0,4.6-2.2,5.6-2.2c0.5,0,1,0.4,1,1.2c0,1.3-3.4,3.4-6.6,3.4  c-5.3,0-7.6-4.1-7.6-8.5c0-4.5,2.8-8.5,7.4-8.5c4.5,0,7.1,4.1,7.1,8.1c0,1-0.3,1.5-1.5,1.5H472.8L472.8,281.5z M481.9,279.4  c0-2.4-1.4-5.1-4.4-5.1c-3.4-0.1-4.6,2.6-4.7,5.1H481.9z"/><path fill="#f3f3f3" d="M486.8,273.4c0-0.9,0.5-1.5,1.4-1.5c0.8,0,1.4,0.6,1.4,1.5v0.7l0.1,0.1c1.2-1.6,2.9-2.2,4.6-2.2  c2.6,0,5.8,1.6,5.8,6.3v9.2c0,0.9-0.5,1.5-1.4,1.5c-0.8,0-1.4-0.6-1.4-1.5v-9c0-2.9-2-4.1-3.8-4.1c-1.8,0-3.8,1.2-3.8,4.1v9  c0,0.9-0.5,1.5-1.4,1.5c-0.8,0-1.4-0.6-1.4-1.5v-14.1H486.8z"/><path fill="#f3f3f3" d="M505,281.5c0,2.8,1.8,5,4.9,5c3.6,0,4.6-2.2,5.6-2.2c0.5,0,1,0.4,1,1.2c0,1.3-3.4,3.4-6.6,3.4  c-5.3,0-7.6-4.1-7.6-8.5c0-4.5,2.8-8.5,7.4-8.5c4.5,0,7.1,4.1,7.1,8.1c0,1-0.3,1.5-1.5,1.5H505L505,281.5z M514.1,279.4  c0-2.4-1.4-5.1-4.4-5.1c-3.4-0.1-4.6,2.6-4.7,5.1H514.1z"/><path fill="#f3f3f3" d="M519,273.4c0-0.9,0.5-1.5,1.4-1.5c0.8,0,1.4,0.6,1.4,1.5v1.4h0.1c0.6-1.3,2.1-2.9,3.7-2.9  c1,0,1.5,0.6,1.5,1.4c0,0.8-0.6,1.3-1.7,1.5c-1.6,0.3-3.6,1.5-3.6,4.7v7.9c0,0.9-0.5,1.5-1.4,1.5c-0.8,0-1.4-0.6-1.4-1.5V273.4z"/><path fill="#f3f3f3" d="M542,287.5c0,4.9-3,7.9-7.5,7.9c-2.8,0-6.3-1.6-6.3-3c0-0.6,0.3-1.3,1.2-1.3c1.2,0,2.5,1.9,5.4,1.9  c3.5,0,4.5-2.7,4.5-5.1v-1.4h-0.1c-0.8,1.4-2.3,2.4-4.2,2.4c-4.7,0-7.3-4.1-7.3-8.5s2.6-8.5,7.3-8.5c1.8,0,3.5,1.1,4.2,2.1h0.1  v-0.7c0-1,0.7-1.3,1.5-1.3c0.5,0,1.3,0.4,1.3,1.3v14.2H542z M535,286.5c3.4,0,4.5-3.3,4.5-6.1s-1.2-6.1-4.5-6.1  c-3.4,0-4.5,3.3-4.5,6.1S531.6,286.5,535,286.5z"/><path fill="#f3f3f3" d="M544.4,274.6c-0.3-0.9-0.4-1.2-0.4-1.5c0-0.7,0.6-1.2,1.2-1.2c0.7,0,1.2,0.4,1.4,1l3.8,11.4h0.1l3.7-11.4  c0.2-0.6,0.6-1,1.3-1c0.6,0,1.2,0.5,1.2,1.2c0,0.3-0.1,0.6-0.4,1.5l-6.9,19.7c-0.2,0.6-0.7,1-1.3,1s-1.2-0.5-1.2-1.2  c0-0.3,0.1-0.6,0.4-1.5l1.7-4.6L544.4,274.6z"/></g></svg>